<svg width="89" height="89" viewBox="0 0 89 89" fill="none" xmlns="http://www.w3.org/2000/svg">
<path d="M59.3334 14.8337C59.3334 10.7545 62.6709 7.41699 66.7501 7.41699C70.8292 7.41699 74.1667 10.7545 74.1667 14.8337C74.1667 18.9128 70.8292 22.2503 66.7501 22.2503C62.6709 22.2503 59.3334 18.9128 59.3334 14.8337ZM74.1667 81.5837V59.3337H83.4376L74.1667 31.1503C73.0542 28.1837 70.4584 25.9587 67.1209 25.9587H66.7501C63.4126 25.9587 60.8167 28.1837 59.7042 31.1503L56.3667 40.792C60.4459 43.017 63.0417 47.0962 63.0417 52.2878V81.5837H74.1667ZM46.3542 42.6462C49.3209 42.6462 51.9167 40.0503 51.9167 37.0837C51.9167 34.117 49.3209 31.5212 46.3542 31.5212C43.3876 31.5212 40.7917 34.117 40.7917 37.0837C40.7917 40.0503 43.3876 42.6462 46.3542 42.6462ZM20.3959 22.2503C24.4751 22.2503 27.8126 18.9128 27.8126 14.8337C27.8126 10.7545 24.4751 7.41699 20.3959 7.41699C16.3167 7.41699 12.9792 10.7545 12.9792 14.8337C12.9792 18.9128 16.3167 22.2503 20.3959 22.2503ZM27.8126 81.5837V55.6253H33.3751V33.3753C33.3751 29.2962 30.0376 25.9587 25.9584 25.9587H14.8334C10.7542 25.9587 7.41675 29.2962 7.41675 33.3753V55.6253H12.9792V81.5837H27.8126ZM51.9167 81.5837V66.7503H55.6251V51.917C55.6251 48.9503 53.0292 46.3545 50.0626 46.3545H42.6459C39.6792 46.3545 37.0834 48.9503 37.0834 51.917V66.7503H40.7917V81.5837H51.9167Z" fill="white"/>
</svg>
