<svg width="89" height="89" viewBox="0 0 89 89" fill="none" xmlns="http://www.w3.org/2000/svg">
<path d="M77.8749 44.5C70.4582 44.5 66.7499 33.375 55.6249 33.375C44.4999 33.375 44.4999 40.7917 44.4999 40.7917C44.4999 40.7917 44.4999 33.375 33.3749 33.375C22.2499 33.375 18.5416 44.5 11.1249 44.5C7.41658 44.5 3.70825 40.7917 3.70825 40.7917C3.70825 40.7917 7.41658 59.3333 22.2499 59.3333C40.7916 59.3333 44.4999 48.2083 44.4999 48.2083C44.4999 48.2083 48.2082 59.3333 66.7499 59.3333C81.5832 59.3333 85.2916 40.7917 85.2916 40.7917C85.2916 40.7917 81.5832 44.5 77.8749 44.5Z" fill="white"/>
</svg>
