<svg width="89" height="89" viewBox="0 0 89 89" fill="none" xmlns="http://www.w3.org/2000/svg">
<g clip-path="url(#clip0_772_552)">
<path d="M83.5858 20.099L78.1963 16.0198C77.3626 15.3703 76.336 15.0176 75.2791 15.0176C74.2222 15.0176 73.1956 15.3703 72.3619 16.0198L24.7222 54.5371C21.814 53.0009 18.445 52.5794 15.2479 53.3517C12.0509 54.124 9.24586 56.0369 7.35963 58.7313C5.4734 61.4257 4.6358 64.716 5.00414 67.9843C5.37248 71.2526 6.92142 74.2739 9.36003 76.4809C11.7986 78.6878 14.9591 79.9285 18.2478 79.9698C21.5366 80.0112 24.7272 78.8504 27.2206 76.7055C29.7139 74.5605 31.3383 71.5791 31.7887 68.3211C32.2391 65.0631 31.4845 61.7527 29.6666 59.0118L39.3083 51.2984L72.3619 77.9243C73.1956 78.5738 74.2222 78.9265 75.2791 78.9265C76.336 78.9265 77.3626 78.5738 78.1963 77.9243L83.5858 73.8698L51.7683 46.9721L83.5858 20.099ZM18.418 73.5484C17.0196 73.5484 15.6526 73.1338 14.4898 72.3568C13.3271 71.5799 12.4208 70.4756 11.8857 69.1837C11.3505 67.8917 11.2105 66.47 11.4833 65.0985C11.7561 63.7269 12.4295 62.4671 13.4184 61.4782C14.4072 60.4894 15.6671 59.816 17.0386 59.5432C18.4102 59.2704 19.8318 59.4104 21.1238 59.9455C22.4158 60.4807 23.52 61.387 24.297 62.5497C25.0739 63.7124 25.4886 65.0795 25.4886 66.4779C25.482 68.3511 24.735 70.1458 23.4104 71.4703C22.0859 72.7949 20.2912 73.5419 18.418 73.5484Z" fill="white"/>
<path d="M35.3527 37.6766L29.6666 33.0783C31.4845 30.3373 32.2391 27.027 31.7887 23.769C31.3383 20.511 29.7139 17.5295 27.2206 15.3846C24.7272 13.2397 21.5366 12.0789 18.2478 12.1202C14.9591 12.1616 11.7986 13.4022 9.36003 15.6092C6.92142 17.8161 5.37248 20.8375 5.00414 24.1058C4.6358 27.3741 5.4734 30.6644 7.35963 33.3588C9.24586 36.0531 12.0509 37.9661 15.2479 38.7384C18.445 39.5107 21.814 39.0892 24.7222 37.553L30.0622 42.0277L35.3527 37.6766ZM18.418 32.7322C17.0196 32.7322 15.6526 32.3175 14.4898 31.5406C13.3271 30.7636 12.4208 29.6594 11.8857 28.3674C11.3505 27.0754 11.2105 25.6538 11.4833 24.2822C11.7561 22.9107 12.4295 21.6508 13.4184 20.662C14.4072 19.6731 15.6671 18.9997 17.0386 18.7269C18.4102 18.4541 19.8318 18.5941 21.1238 19.1293C22.4158 19.6644 23.52 20.5707 24.297 21.7334C25.0739 22.8962 25.4886 24.2632 25.4886 25.6616C25.482 27.5326 24.7342 29.3246 23.4089 30.6453C22.0836 31.9659 20.289 32.7075 18.418 32.7074V32.7322Z" fill="white"/>
</g>
<defs>
<clipPath id="clip0_772_552">
<rect width="89" height="89" fill="white"/>
</clipPath>
</defs>
</svg>
